<?xml version="1.0" encoding="utf-8"?>
<!-- Generator: Adobe Illustrator 22.0.1, SVG Export Plug-In . SVG Version: 6.00 Build 0)  -->
<svg version="1.1" xmlns="http://www.w3.org/2000/svg" xmlns:xlink="http://www.w3.org/1999/xlink" x="0px" y="0px"
	 viewBox="0 0 1920 684" style="enable-background:new 0 0 1920 684;" xml:space="preserve">
<style type="text/css">
	.st0{fill:#DD0D0D;}
	.st1{fill:#E67064;}
	.st2{clip-path:url(#SVGID_2_);}
	.st3{clip-path:url(#SVGID_4_);fill:#E80000;}
	.st4{clip-path:url(#SVGID_4_);fill:#E67064;}
	.st5{clip-path:url(#SVGID_4_);fill:#FFFFFF;}
	.st6{clip-path:url(#SVGID_4_);fill:#E30613;}
</style>
<g id="trackcat">
	<g>
		<path class="st0" d="M512.1,282.6h4.8v-26.3c0-7.1,0.2-12.6,0.6-16.6c0.4-4,1.4-7.5,3.1-10.3c1.7-3,4.2-5.4,7.4-7.3
			c3.2-1.9,6.8-2.8,10.7-2.8c5.6,0,10.6,2.1,15.1,6.3c3,2.8,4.9,6.2,5.7,10.2c0.8,4,1.2,9.7,1.2,17.1v29.8h16
			c6.2,0,10.9,1.5,14.2,4.4c3.3,2.9,4.9,6.7,4.9,11.3c0,5.9-2.3,10-7,12.3c-4.7,2.4-11.3,3.5-20,3.5h-8.2v80.5
			c0,6.8,0.2,12.1,0.7,15.8c0.5,3.7,1.8,6.7,3.8,9c2.1,2.3,5.5,3.4,10.2,3.4c2.6,0,6-0.5,10.4-1.4c4.4-0.9,7.8-1.4,10.3-1.4
			c3.5,0,6.7,1.4,9.5,4.3c2.8,2.8,4.2,6.3,4.2,10.5c0,7.1-3.8,12.5-11.5,16.2s-18.8,5.6-33.2,5.6c-13.7,0-24.1-2.3-31.1-6.9
			c-7.1-4.6-11.7-11-13.9-19.1c-2.2-8.1-3.3-19-3.3-32.6v-84h-5.8c-6.3,0-11.1-1.5-14.4-4.5c-3.3-3-5-6.8-5-11.4
			c0-4.6,1.7-8.4,5.2-11.3C500.4,284.1,505.4,282.6,512.1,282.6z"/>
		<path class="st0" d="M672.7,393.6v36.6c0,8.9-2.1,15.5-6.3,20c-4.2,4.4-9.5,6.7-15.9,6.7c-6.3,0-11.5-2.2-15.6-6.7
			c-4.1-4.5-6.1-11.1-6.1-19.9V308.3c0-19.7,7.1-29.5,21.3-29.5c7.3,0,12.5,2.3,15.7,6.9c3.2,4.6,5,11.4,5.3,20.4
			c5.2-9,10.6-15.8,16.1-20.4c5.5-4.6,12.9-6.9,22-6.9c9.2,0,18.1,2.3,26.8,6.9c8.7,4.6,13,10.7,13,18.3c0,5.3-1.8,9.8-5.5,13.2
			c-3.7,3.5-7.7,5.2-11.9,5.2c-1.6,0-5.5-1-11.6-3c-6.1-2-11.6-3-16.3-3c-6.4,0-11.7,1.7-15.7,5.1c-4.1,3.4-7.2,8.4-9.5,15
			c-2.2,6.6-3.8,14.5-4.7,23.7C673.1,369.3,672.7,380.4,672.7,393.6z"/>
		<path class="st0" d="M878.8,432.1c-10.6,8.2-20.8,14.4-30.7,18.5c-9.9,4.1-21,6.2-33.3,6.2c-11.2,0-21.1-2.2-29.6-6.7
			c-8.5-4.4-15-10.4-19.6-18c-4.6-7.6-6.9-15.8-6.9-24.7c0-12,3.8-22.2,11.4-30.6c7.6-8.4,18-14.1,31.3-17c2.8-0.6,9.7-2.1,20.7-4.3
			c11-2.2,20.4-4.3,28.3-6.2c7.9-1.9,16.4-4.1,25.6-6.8c-0.5-11.5-2.9-20-7-25.4c-4.1-5.4-12.6-8.1-25.6-8.1
			c-11.1,0-19.5,1.6-25.1,4.7c-5.6,3.1-10.4,7.8-14.4,14c-4,6.2-6.8,10.3-8.5,12.3c-1.7,2-5.2,3-10.7,3c-4.9,0-9.2-1.6-12.7-4.7
			c-3.6-3.2-5.4-7.2-5.4-12.1c0-7.7,2.7-15.2,8.2-22.5c5.5-7.3,14-13.3,25.5-18c11.5-4.7,25.9-7.1,43.1-7.1
			c19.2,0,34.4,2.3,45.4,6.8c11,4.5,18.8,11.7,23.3,21.6c4.5,9.8,6.8,22.9,6.8,39.1c0,10.3,0,19-0.1,26.1
			c-0.1,7.2-0.1,15.1-0.2,23.9c0,8.2,1.4,16.8,4.1,25.7c2.7,8.9,4.1,14.7,4.1,17.2c0,4.5-2.1,8.6-6.3,12.3c-4.2,3.7-9,5.5-14.4,5.5
			c-4.5,0-8.9-2.1-13.3-6.3C888.4,446.2,883.7,440.1,878.8,432.1z M875.9,368.7c-6.4,2.4-15.7,4.8-28,7.5
			c-12.2,2.6-20.7,4.5-25.4,5.8c-4.7,1.2-9.2,3.6-13.5,7.2c-4.3,3.6-6.4,8.6-6.4,15c0,6.6,2.5,12.3,7.5,16.9c5,4.7,11.6,7,19.7,7
			c8.7,0,16.6-1.9,24-5.7c7.3-3.8,12.7-8.7,16.1-14.7c4-6.6,5.9-17.5,5.9-32.7V368.7z"/>
		<path class="st0" d="M1123.6,402.5c0,5.5-1.6,11.3-4.9,17.5c-3.3,6.2-8.2,12.1-14.9,17.7c-6.7,5.6-15.1,10.1-25.3,13.6
			c-10.2,3.4-21.6,5.1-34.3,5.1c-27,0-48.2-7.9-63.3-23.7c-15.2-15.8-22.8-36.9-22.8-63.4c0-18,3.5-33.8,10.4-47.6
			c6.9-13.8,17-24.5,30.1-32c13.1-7.5,28.9-11.3,47.1-11.3c11.3,0,21.7,1.7,31.2,5c9.5,3.3,17.5,7.6,24.1,12.8
			c6.6,5.2,11.6,10.8,15.1,16.8c3.5,5.9,5.2,11.5,5.2,16.6c0,5.2-2,9.7-5.9,13.3c-3.9,3.6-8.6,5.5-14.2,5.5c-3.6,0-6.7-0.9-9.1-2.8
			c-2.4-1.9-5.1-4.9-8.1-9.1c-5.3-8.1-10.9-14.2-16.8-18.3c-5.8-4.1-13.2-6.1-22.2-6.1c-12.9,0-23.4,5.1-31.3,15.2
			c-7.9,10.1-11.9,23.9-11.9,41.5c0,8.2,1,15.8,3,22.7c2,6.9,5,12.8,8.8,17.6c3.8,4.9,8.5,8.6,14,11.1c5.5,2.5,11.4,3.8,18,3.8
			c8.8,0,16.3-2,22.5-6.1c6.3-4.1,11.8-10.3,16.6-18.6c2.7-4.9,5.6-8.8,8.7-11.5c3.1-2.8,6.9-4.2,11.4-4.2c5.3,0,9.8,2,13.3,6.1
			C1121.8,393.6,1123.6,397.9,1123.6,402.5z"/>
		<path class="st0" d="M1261.6,436.7l-38.6-63.5l-23.7,22.5v34.8c0,8.4-2.2,14.9-6.7,19.5c-4.4,4.5-9.5,6.8-15.3,6.8
			c-6.7,0-12-2.2-15.9-6.7c-3.8-4.5-5.8-11.1-5.8-19.9V243.5c0-9.7,1.9-17.1,5.6-22.2c3.7-5.1,9.1-7.6,16-7.6c6.7,0,12.1,2.3,16,6.9
			c4,4.6,5.9,11.4,5.9,20.4v106.2l49.2-51.6c6.1-6.4,10.7-10.8,14-13.1c3.2-2.4,7.1-3.5,11.7-3.5c5.5,0,10,1.7,13.6,5.2
			c3.6,3.5,5.5,7.8,5.5,13.1c0,6.4-5.9,15-17.8,25.7l-23.3,21.3l44.9,70.6c3.3,5.2,5.7,9.2,7.1,11.9c1.4,2.7,2.2,5.3,2.2,7.8
			c0,7-1.9,12.4-5.7,16.4c-3.8,4-8.8,6-15,6c-5.3,0-9.5-1.4-12.3-4.3C1270.4,449.5,1266.5,444.3,1261.6,436.7z"/>
		<path class="st1" d="M1492.9,402.5c0,5.5-1.6,11.3-4.9,17.5c-3.3,6.2-8.2,12.1-14.9,17.7c-6.7,5.6-15.1,10.1-25.3,13.6
			c-10.2,3.4-21.6,5.1-34.3,5.1c-27,0-48.2-7.9-63.3-23.7c-15.2-15.8-22.8-36.9-22.8-63.4c0-18,3.5-33.8,10.4-47.6
			c6.9-13.8,17-24.5,30.1-32c13.1-7.5,28.9-11.3,47.1-11.3c11.3,0,21.7,1.7,31.2,5c9.5,3.3,17.5,7.6,24.1,12.8
			c6.6,5.2,11.6,10.8,15.1,16.8c3.5,5.9,5.2,11.5,5.2,16.6c0,5.2-2,9.7-5.9,13.3c-3.9,3.6-8.6,5.5-14.2,5.5c-3.6,0-6.7-0.9-9.1-2.8
			c-2.4-1.9-5.1-4.9-8.1-9.1c-5.3-8.1-10.9-14.2-16.8-18.3c-5.8-4.1-13.2-6.1-22.2-6.1c-12.9,0-23.4,5.1-31.3,15.2
			c-7.9,10.1-11.9,23.9-11.9,41.5c0,8.2,1,15.8,3,22.7c2,6.9,5,12.8,8.8,17.6c3.8,4.9,8.5,8.6,14,11.1c5.5,2.5,11.4,3.8,18,3.8
			c8.8,0,16.3-2,22.5-6.1c6.3-4.1,11.8-10.3,16.6-18.6c2.7-4.9,5.6-8.8,8.7-11.5c3.1-2.8,6.9-4.2,11.4-4.2c5.3,0,9.8,2,13.3,6.1
			C1491.1,393.6,1492.9,397.9,1492.9,402.5z"/>
		<path class="st1" d="M1645,432.1c-10.6,8.2-20.8,14.4-30.7,18.5c-9.9,4.1-21,6.2-33.3,6.2c-11.2,0-21.1-2.2-29.6-6.7
			c-8.5-4.4-15-10.4-19.6-18c-4.6-7.6-6.9-15.8-6.9-24.7c0-12,3.8-22.2,11.4-30.6c7.6-8.4,18-14.1,31.3-17c2.8-0.6,9.7-2.1,20.7-4.3
			c11-2.2,20.4-4.3,28.3-6.2c7.9-1.9,16.4-4.1,25.6-6.8c-0.5-11.5-2.9-20-7-25.4c-4.1-5.4-12.6-8.1-25.6-8.1
			c-11.1,0-19.5,1.6-25.1,4.7c-5.6,3.1-10.4,7.8-14.4,14c-4,6.2-6.8,10.3-8.5,12.3c-1.7,2-5.2,3-10.7,3c-4.9,0-9.2-1.6-12.7-4.7
			c-3.6-3.2-5.4-7.2-5.4-12.1c0-7.7,2.7-15.2,8.2-22.5c5.5-7.3,14-13.3,25.5-18c11.5-4.7,25.9-7.1,43.1-7.1
			c19.2,0,34.4,2.3,45.4,6.8c11,4.5,18.8,11.7,23.3,21.6c4.5,9.8,6.8,22.9,6.8,39.1c0,10.3,0,19-0.1,26.1
			c-0.1,7.2-0.1,15.1-0.2,23.9c0,8.2,1.4,16.8,4.1,25.7c2.7,8.9,4.1,14.7,4.1,17.2c0,4.5-2.1,8.6-6.3,12.3c-4.2,3.7-9,5.5-14.4,5.5
			c-4.5,0-8.9-2.1-13.3-6.3C1654.6,446.2,1649.9,440.1,1645,432.1z M1642.1,368.7c-6.4,2.4-15.7,4.8-28,7.5
			c-12.2,2.6-20.7,4.5-25.4,5.8c-4.7,1.2-9.2,3.6-13.5,7.2c-4.3,3.6-6.4,8.6-6.4,15c0,6.6,2.5,12.3,7.5,16.9c5,4.7,11.6,7,19.7,7
			c8.7,0,16.6-1.9,24-5.7c7.3-3.8,12.7-8.7,16.1-14.7c4-6.6,5.9-17.5,5.9-32.7V368.7z"/>
		<path class="st1" d="M1727,282.6h4.8v-26.3c0-7.1,0.2-12.6,0.6-16.6c0.4-4,1.4-7.5,3.1-10.3c1.7-3,4.2-5.4,7.4-7.3
			c3.2-1.9,6.8-2.8,10.7-2.8c5.6,0,10.6,2.1,15.1,6.3c3,2.8,4.9,6.2,5.7,10.2c0.8,4,1.2,9.7,1.2,17.1v29.8h16
			c6.2,0,10.9,1.5,14.2,4.4c3.3,2.9,4.9,6.7,4.9,11.3c0,5.9-2.3,10-7,12.3c-4.7,2.4-11.3,3.5-20,3.5h-8.2v80.5
			c0,6.8,0.2,12.1,0.7,15.8c0.5,3.7,1.8,6.7,3.8,9c2.1,2.3,5.5,3.4,10.2,3.4c2.6,0,6-0.5,10.4-1.4c4.4-0.9,7.8-1.4,10.3-1.4
			c3.5,0,6.7,1.4,9.5,4.3c2.8,2.8,4.3,6.3,4.3,10.5c0,7.1-3.8,12.5-11.5,16.2s-18.8,5.6-33.2,5.6c-13.7,0-24.1-2.3-31.1-6.9
			c-7.1-4.6-11.7-11-13.9-19.1c-2.2-8.1-3.3-19-3.3-32.6v-84h-5.8c-6.3,0-11.1-1.5-14.4-4.5c-3.3-3-5-6.8-5-11.4
			c0-4.6,1.7-8.4,5.2-11.3C1715.3,284.1,1720.4,282.6,1727,282.6z"/>
	</g>
</g>
<g id="Logo_x5F_Marker_xA0_Bild_1_">
	<g>
		<g>
			<defs>
				<rect id="SVGID_1_" x="64" y="74.9" width="373.5" height="534.2"/>
			</defs>
			<clipPath id="SVGID_2_">
				<use xlink:href="#SVGID_1_"  style="overflow:visible;"/>
			</clipPath>
			<g class="st2">
				<defs>
					<rect id="SVGID_3_" x="64" y="74.9" width="373.5" height="534.2"/>
				</defs>
				<clipPath id="SVGID_4_">
					<use xlink:href="#SVGID_3_"  style="overflow:visible;"/>
				</clipPath>
				<path class="st3" d="M314.8,266.2l100.7-28.9c-2.2-20.5-8.1-39.9-16.8-57.7c-1.2-39.6-2.5-77.4-2.5-77.4L353.7,123
					c-29.8-24.6-68.1-39.4-109.8-39.4c-41.8,0-80.1,14.8-110,39.6l-42.8-20.9c0,0-1.3,38.5-2.5,78.4c-7.9,16.3-13.4,34-15.8,52.6
					l114.6,32.9l-111,31.9c9.9,39.9,33.7,74.3,66,97.8c23,18.3,55.3,31.8,100.8,34.2v0c0.1,0,0.3,0,0.4,0c0.1,0,0.3,0,0.4,0v0
					c41.7-2.2,72.4-13.7,94.9-29.7c36.6-24.2,63.5-62,73.4-106.1L314.8,266.2z"/>
				<path class="st4" d="M395.8,338.6c-30.3-41.4-85.6-69.2-149-69.2c-66,0-122.8,29.1-152,73.5L212,549.9l30.8,53.5l32.5-52.6"/>
				<path class="st5" d="M136.8,151.3c0,0-3.4,104-3.5,115.6c0,0-5.2,108.5,110.6,114.2v-216c0,0-28.9-0.3-51.8,13.3L136.8,151.3z"
					/>
				<path class="st5" d="M350.5,151.3c0,0,3.4,104,3.5,115.6c0,0,5.2,108.5-110.6,114.2v-216c0,0,28.9-0.3,51.8,13.3L350.5,151.3z"
					/>
				<path class="st6" d="M244.8,260.4c0,0-9.4-1-12.6,2.7c-3.2,3.7,5.8,9.6,7.7,10.4c1.9,0.9,3.9,1,4.4,1l-1-0.1
					c0.5,0,2.5-0.2,4.4-1c1.9-0.9,10.8-6.8,7.7-10.4c-3.1-3.6-12.6-2.7-12.6-2.7"/>
			</g>
		</g>
	</g>
</g>
</svg>
